{
    "asset" : {
        "copyright" : "(c) Roman Braun",
        "generator" : "Khronos glTF Blender I/O v1.5.17",
        "version" : "2.0"
    },
    "scene" : 0,
    "scenes" : [
        {
            "name" : "Scene",
            "nodes" : [
                0
            ]
        }
    ],
    "nodes" : [
        {
            "mesh" : 0,
            "name" : "Cube.001"
        }
    ],
    "meshes" : [
        {
            "name" : "Cube.001",
            "primitives" : [
                {
                    "attributes" : {
                        "POSITION" : 0,
                        "NORMAL" : 1,
                        "TEXCOORD_0" : 2
                    },
                    "indices" : 3
                }
            ]
        }
    ],
    "accessors" : [
        {
            "bufferView" : 0,
            "componentType" : 5126,
            "count" : 212,
            "max" : [
                0.25,
                0.09385724365711212,
                0.125
            ],
            "min" : [
                -0.25,
                0,
                -0.125
            ],
            "type" : "VEC3"
        },
        {
            "bufferView" : 1,
            "componentType" : 5126,
            "count" : 212,
            "type" : "VEC3"
        },
        {
            "bufferView" : 2,
            "componentType" : 5126,
            "count" : 212,
            "type" : "VEC2"
        },
        {
            "bufferView" : 3,
            "componentType" : 5123,
            "count" : 900,
            "type" : "SCALAR"
        }
    ],
    "bufferViews" : [
        {
            "buffer" : 0,
            "byteLength" : 2544,
            "byteOffset" : 0
        },
        {
            "buffer" : 0,
            "byteLength" : 2544,
            "byteOffset" : 2544
        },
        {
            "buffer" : 0,
            "byteLength" : 1696,
            "byteOffset" : 5088
        },
        {
            "buffer" : 0,
            "byteLength" : 1800,
            "byteOffset" : 6784
        }
    ],
    "buffers" : [
        {
            "byteLength" : 8584,
            "uri" : "data:application/octet-stream;base64,"
        }
    ]
}
